<?xml version="1.0" encoding="UTF-8" standalone="no"?>
<svg width="61px" height="61px" viewBox="0 0 61 61" version="1.1" xmlns="http://www.w3.org/2000/svg" xmlns:xlink="http://www.w3.org/1999/xlink" xmlns:sketch="http://www.bohemiancoding.com/sketch/ns">
    <!-- Generator: Sketch 3.2.2 (9983) - http://www.bohemiancoding.com/sketch -->
    <title>Slice 1</title>
    <desc>Created with Sketch.</desc>
    <defs>
        <path id="path-1" d="M0,0.122 L1192,0.122 L1192,1866 L0,1866 L0,0.122 Z"></path>
    </defs>
    <g id="Page-1" stroke="none" stroke-width="1" fill="none" fill-rule="evenodd" sketch:type="MSPage">
        <g id="The_Nice_and_Serious_UI_Icon_Set" sketch:type="MSLayerGroup" transform="translate(-69.000000, -446.000000)">
            <g id="Group-352">
                <mask id="mask-2" sketch:name="Clip 158" fill="white">
                    <use xlink:href="#path-1"></use>
                </mask>
                <g id="Clip-158"></g>
                <path d="M129.5731,482.7314 C129.5731,483.9634 128.5711,484.9664 127.3391,484.9664 L110.9071,484.9664 L110.9071,478.3504 L120.0801,478.3504 C121.6671,478.3504 122.9581,477.0594 122.9581,475.4724 L122.9581,456.4264 C122.9581,454.8384 121.6671,453.5474 120.0801,453.5474 L101.0341,453.5474 C99.4461,453.5474 98.1551,454.8384 98.1551,456.4264 L98.1551,475.4724 C98.1551,475.7674 98.2011,476.0574 98.2921,476.3384 L98.2921,484.9664 L93.7751,484.9664 C92.5431,484.9664 91.5401,483.9634 91.5401,482.7314 L91.5401,476.5824 L91.5401,466.9664 L91.5401,449.1674 C91.5401,447.9354 92.5431,446.9324 93.7751,446.9324 L127.3391,446.9324 C128.5711,446.9324 129.5731,447.9354 129.5731,449.1674 L129.5731,482.7314 Z M107.9071,504.2654 C107.9071,505.4974 106.9041,506.5004 105.6721,506.5004 L72.1081,506.5004 C70.8761,506.5004 69.8731,505.4974 69.8731,504.2654 L69.8731,470.7014 C69.8731,469.4684 70.8761,468.4664 72.1081,468.4664 L88.5401,468.4664 L88.5401,475.0824 L79.3671,475.0824 C77.7801,475.0824 76.4891,476.3734 76.4891,477.9604 L76.4891,497.0064 C76.4891,498.5934 77.7801,499.8844 79.3671,499.8844 L98.4131,499.8844 C100.0011,499.8844 101.2921,498.5934 101.2921,497.0064 L101.2921,486.4664 L101.2921,476.0604 L101.2921,468.4664 L105.6721,468.4664 C106.9041,468.4664 107.9071,469.4684 107.9071,470.7014 L107.9071,476.8504 L107.9071,486.4664 L107.9071,504.2654 Z M93.7751,487.9664 L98.2921,487.9664 L98.2921,496.8844 L79.4891,496.8844 L79.4891,478.0824 L88.5401,478.0824 L88.5401,482.7314 C88.5401,485.6184 90.8881,487.9664 93.7751,487.9664 L93.7751,487.9664 Z M105.6721,465.4664 L101.1551,465.4664 L101.1551,456.5474 L119.9581,456.5474 L119.9581,475.3504 L110.9071,475.3504 L110.9071,470.7014 C110.9071,467.8144 108.5581,465.4664 105.6721,465.4664 Z" id="Fill-335" fill="#3BD1BB" sketch:type="MSShapeGroup" mask="url(#mask-2)"></path>
            </g>
        </g>
    </g>
</svg>