<svg id="Layer_1" data-name="Layer 1" xmlns="http://www.w3.org/2000/svg" xmlns:xlink="http://www.w3.org/1999/xlink" width="243.4" height="134.925" viewBox="0 0 243.4 134.925"><defs><style>.cls-1,.cls-2{fill:#fff;}.cls-1,.cls-4,.cls-7{stroke:#000;}.cls-1,.cls-4,.cls-5,.cls-6{stroke-miterlimit:10;}.cls-1{stroke-width:2px;}.cls-3,.cls-5,.cls-6,.cls-7{fill:none;}.cls-4{fill:#0060d4;}.cls-5,.cls-6{stroke-width:4px;stroke:url(#Gold_Radial);}.cls-6{stroke-dasharray:2.045 2.045;}.cls-7{stroke-linecap:round;stroke-linejoin:round;stroke-width:3px;}</style><radialGradient id="Gold_Radial" cx="174.74" cy="42.125" r="18.428" gradientUnits="userSpaceOnUse"><stop offset="0" stop-color="#fffbcc"/><stop offset="0.115" stop-color="#fbf2bb"/><stop offset="0.341" stop-color="#f0d98e"/><stop offset="0.371" stop-color="#eed688"/><stop offset="0.685" stop-color="#ebbb10"/><stop offset="1" stop-color="#c3922e"/></radialGradient></defs><title>Artwork12_77ad3706-63dd-4388-b7c9-4b18400fea55</title><circle class="cls-1" cx="142.7" cy="22.8" r="5" transform="translate(7.719 74.406) rotate(-30.001)"/><path d="M150.7,9.325c-1.2-3,.5-2.9-3.1.5-2.4,1.9-5.7,1.4-6,.2-0.3-1.7,3.3-3.1,5.3-5,1.7-2,2.4-5,4.3-5,2.2-.3,1.7,2.2,5.8,2.6s3.5,3.3,6,3.4c5.7-.2,6.4.5,9.8,2.2,5.8,2.8,8.6,7.6,10.6,13.2,0,0.1,11.1,7,19.2,17,0.4,0.6,16.7,9.3,23.8,19.7,2.3,3.4,16.9,30.9,17,41.8-0.1,3.8-3.7,12.5-3.6,13.4,0.3,1.9,2.6.8,2.6,5,0,6.4-6.3,7.8-6.5,8.2-2.6,5.3-18.4,5.4-29.3,6-2.4,0-3.8-1.6-6.2-1.9-3.6-1-2.6-4.7-4.3,1.2-0.8,2.3-6.1,3-10.1,3.1-3.2-.1-4.9-2.5-7.9-3.1-1.9-.3-1.9-3.7-1-5.5,1.1-2.5,4.5-2.1,7.2-4.8a20.721,20.721,0,0,0,1.4-7.9c-0.5-7.1.6-15.9-1-18.7a22.352,22.352,0,0,0-7.4-5.8,39.62,39.62,0,0,0,0,7.7c0.4,2.9-.5,1.5,1.7,11,0.2,1.2-1,5.1-1.2,8.4-0.1,2.5-1.2,3.1-1.7,5-0.3,1.8.2,3.6-.7,5.3-1.6,2.3-5.2,2.5-8.9,3.8-1.8.4-3.1-.9-4.6-1.4-2.5-.7-5.5-0.1-6.2-2.4-1.8-6.1,2.3-5.1,2.9-6.2a7.413,7.413,0,0,1,2.6-2.4c1.2-.9,3.7-0.3,3.8-1.9,0.8-5.2,0-10.2-.5-16.3-1.1-12-6-18.7-7-31-1.2-13.6-.4-18.8-0.5-23,0.1-.7-3.5-3.2-4.1-3.1-2,.3-2.3,1.9-4.8,1.9-1.9,0-3.1-1.8-4.8-2.4-1.9-.5-3.3.5-5.3-1.4-3-3-6.3-6.3-6.2-10.1,0-4.5,4.6-5.1,11.5-8.4,2-1,.3-4.5,1.2-7.2C145.3,13.125,151.8,11.425,150.7,9.325Z"/><path class="cls-2" d="M196.5,119.025c-0.4,1.1,1.4,1.1,1.4,0C198.2,117.625,197,117.525,196.5,119.025Z"/><path class="cls-2" d="M198.9,114.925c0.1,1,.5,2.4,1.4,2.9a3.378,3.378,0,0,0,2.6.2l-4.1-8.4A10.577,10.577,0,0,0,198.9,114.925Z"/><path class="cls-2" d="M197.7,126.025c1.3,0.1-.1-1.3,2.6-3.4,1.8-1.1,6.2-.5,6.2-1-0.1-1.2-4.7-1.6-7-.5C196.3,122.825,196.1,125.725,197.7,126.025Z"/><path class="cls-2" d="M162,70.525a75.011,75.011,0,0,0,4.6,19.2c0.8,1.7.5,11.8,1.9,19.2,0.5,1.9.1,6-1.2,9.8-0.2.7-3.2,0.7-4.8,1.2-1.1.5-1,2.3-2.4,2.2-2,.2-3.1,3-1.7,3.4,0.8,0,1.2-2.1,2.2-1.7,0.8,0.4-.8,2.3.5,2.4,0.9,0.2,1-4.7,4.8-4.1,1.1,0.4-2.2,2.4-2.2,3.6a2.038,2.038,0,0,0,2.4,1.9,10.53,10.53,0,0,0,6.7-2.6c0.8-.6.1-3.4,0.5-5.3,0.2-1.4,1.3-2.4,1.7-3.6,0.3-2-.1-3.6.2-5.5,0.1-1.1,1-2.1,1-3.4,0-3.5-1.6-5.3-1.9-8.4-0.7-5,.9-8.3.2-13.4-0.5-2.5-3.3-5.1-6.7-8.2-1.2-1.1-3-3.1-1.9-4.1,1.4-.9,2.7,2,4.1,2.9,1.9,1.4,3.5,2.1,5,4.1,1.2,1.4,1.5,3.1,2.6,4.6,1.6,2.3,5.1,5.7,5.8,4.8,1.2-1.4-1.4-6.1-2.4-9.8-0.5-2.5-2.1-5.5-1.4-6.7,0.3-.8,2.4-2.2,2.2.7,0,2.1,1.8,3.9,2.6,6.2,1.8,6.3,4.1,13.5,4.1,25.2,0,3.6.7,6,.5,9.6a28.668,28.668,0,0,1-2.2,8.6c-0.5.9-3.8,0.9-5.3,2.2-1.2.8-2.4,1.5-2.6,2.9a1.917,1.917,0,0,0,1.9,2.2c1.2-.1.6-3,2.2-2.9,1.5,0.2-.8,3.4.5,3.8,2,1.1,1.9-3.4,3.4-2.6,1,0.4-.6,3.6.7,3.4,1.7-.2,4.6-0.3,6-1.7,1.6-1.4-.6-4.6-0.2-7.4,0.1-3.3,2-4.9,2.4-8.2,0.9-7-.4-11.6-0.2-18.7a45.026,45.026,0,0,1,3.4-17.3c0.6-1.6-1.1-4.4,0-4.8,1.9-.7,3.2,2.7,2.9,4.6-0.7,2.5-2.7,6.8-3.1,11-0.4,4.1-.9,11.2.5,11.5,1.3,0.2,3.1-6.7,6.5-8.2,4-2.1,7.4-.8,11.5-0.2,1.8,0.2,4.9-.4,4.8,1,0.1,1.5-3.5,1.2-5.5,1.4-3.2.2-7.1-1.2-8.6-.5-1.8,1-5.4,6.3-5.3,10.8a14.4,14.4,0,0,0,4.1,10.6c3.5,3.7,7.1,4.1,12.2,4.8,3.7,0.6,8.9-.6,8.9,1.7,0,1.3-6.6.9-10.6,1-4.2.2-7.2-.2-11.8,0.5-3.1.3-5.8,2.8-4.1,3.6,3,1.8,2.3-.5,3.4-1.2,0.6-.5,2.2-1.2,2.4-0.2,0.2,1.2-1.9,2.8-1.2,3.1,2.6,1,7.2-.3,16.1-1,3.9-.4,7.8-1.2,10.3-1.7,1-.1,1.7-2.3,1.9-3.8a5.5,5.5,0,0,0,3.6-.2c1.8-1,2.8-3.6,2.2-5-0.2-1-.7-1.8-2.2-0.5-1,1-2.1,3.1-3.6,1.9-2.1-1.8,5.1-10.2,5.3-18,0.3-6.1-4.9-18.6-10.8-30.5-1.4-2.7-2.7-5.4-4.1-7.9-3.5-6.3-8.5-11.6-22.1-19.2-1,.1-3,0.9-3.1-0.2a16.368,16.368,0,0,0-3.1-6.2c-3.1-3.8-5.9-4.8-9.6-8.2-1.1-1-1.1-3.3-2.6-3.4-1.6-.1-1.5,1.1-2.4,1-1.7-.3.1-2-1-4.6a20.818,20.818,0,0,0-6.2-8.9c-2.4-2-3.8-3.9-7-4.3a35.006,35.006,0,0,0-9.8.2c-4,2.1-7.2,3.5-9.8,7.2-2.4,2.8,2.5,5.7-4.3,8.6a38.966,38.966,0,0,0-7.7,3.8,3.756,3.756,0,0,1,3.1,1.9,3.385,3.385,0,0,1-1.7,4.3,6.419,6.419,0,0,0,4.1,5c1.8,0.8,3.5-.9,5.8-0.2,0.9,0.5,2.5-.4,2.9.5,0.2,1.3-2.7,2.1-3.1,1.2,2.3,1.4.9,1.1,2.9,0.7,1.7-.1,2.5-1.9,4.1-1.9,2.4-.2,2.6,2.3,4.1,2.6a3.267,3.267,0,0,1,1.7,0c1.3,0.9,2.1,1.8,3.4,1.9,1.6,0.2,2.7-.8,4.1-0.5,0.9,0.1,1.3,1.1,2.4,1a15.894,15.894,0,0,0,7.4-5c1.7-1.5,1.4-4.1,2.9-5.5a10.231,10.231,0,0,0,3.1-4.3c0.6-2.7,2.3.2,2.2,1-0.1,1.7-1.3,5.1-2.6,8.2-0.7,1.7-2.4,2.1-3.8,3.1-0.7.6-.6,3.2-4.8,5.3-1.7.6-3.1,1.1-4.8,1.7-1.5.7-2.6,2.1-4.3,2.2a5.757,5.757,0,0,1-4.1-.7,113.521,113.521,0,0,0,1,14.4A10.56,10.56,0,0,0,162,70.525Z"/><path class="cls-2" d="M159.8,46.325v1.4a6.2,6.2,0,0,0,4.3,1.4c1.5,0.1,3.1-.1,3.8-1.4a1.287,1.287,0,0,0-1.2-1.2c-1.3-.2-2,0.7-3.1.7A8.187,8.187,0,0,1,159.8,46.325Z"/><path d="M162,31.425c0.1,1.4.9,2.4,1.2,3.6a3.3,3.3,0,0,0,2.4-.2,2.434,2.434,0,0,0,1-1.4l1.4,1a7.433,7.433,0,0,0,3.1-2.4c2.2-2.4,1.3-3.4,2.6-4.6,0.8-.7,2.6-1,2.9-1.9s-1.3-1.8-2.4-1.7c0.1-.4-1.5-3.7-3.4-4.6-0.8-.3-4.4-0.9-6.5,0a5.366,5.366,0,0,0-3.1-.2c-2.7.2-2.7,1.1-3.4,2.4a10.566,10.566,0,0,1,2.6.2c0.2,0,1.1.5,1.2,0.5,0.7,1.1-1.3,1.3-1,3.6C160.9,27.925,162,28.625,162,31.425Z"/><path d="M153.6,33.325c-0.3.4-2.8-.8-3.1-1.9-0.7-1-1.2-3.2-.5-3.6,1.4-.6.5,3.9,1.9,3.4,0.6-.4.1-0.9,0.2-2.6,0-.7,1.4.5,1.9,1,0.9,0.6,1.9,2.3,1.4,2.6-0.4.3-.9-0.5-1.4-0.5C152.8,31.925,154.3,33.125,153.6,33.325Z"/><path d="M152.4,25.925c1,0.7,1.9-.3,3.4,1,0.7,0.8.7,2.5,1.4,3.1,3.1,2.9.7,2.4-.2,1.9-1.2-.9-1.1-2.8-2.4-3.6-1.1-.6-2.7-0.2-3.4-1.2C149.6,24.725,150.5,24.525,152.4,25.925Z"/><path d="M66.9,118.325l6.7,5a14.685,14.685,0,0,1,4.6,4.8,13.9,13.9,0,0,1,1,6.7H6.5l-6.5-13a16.416,16.416,0,0,1,2.9-5,17.707,17.707,0,0,1,4.1-3.1v-12a8.524,8.524,0,0,1,2.9-1.7,12.85,12.85,0,0,1,3.4-.7v-11.5l-3.8-3.6-1-7a2.032,2.032,0,0,1,2.2-2.2,2.088,2.088,0,0,1,2.2,2.2l-1,6.5,4.1,3.6v9.4h1.7v-1.9c2.3-.6,4.1-1.3,6.5-1.7a62.571,62.571,0,0,1,7.4-1,7.082,7.082,0,0,1,1.2-4.8c0.7-1.5,2.2-2.1,3.4-2.9L96,42.925a3.5,3.5,0,0,1,1.2-3.6,3.947,3.947,0,0,1,3.8.2,4.329,4.329,0,0,0,.5-1.2,5.5,5.5,0,0,0,.2-2.2c0-2.1-.3-3.5-0.2-5.3,0.5-2.4,1.3-4.4,3.8-5.3,2-.7,6.3.7,8.6,3.4a62.318,62.318,0,0,1,13.7,22.3c3.1,8.6,5,14,4.6,23.3-0.2,5.4-2.6,9.8-7,9.8-1.8.1-3.3-1-4.6-2.2-1-.5-1.6-2.2-2.2-2.9a5.761,5.761,0,0,0-1.7-.5,3.288,3.288,0,0,1-2.9,2.2,2.75,2.75,0,0,1-2.6-2.2L55.85,88.5S99.4,87.425,99,88.325h7.7v9.8H100l0.2-1.9a27.682,27.682,0,0,0-12.2,2.6c-3.6,2.3-6.5,4.6-8.2,7.7-2,3.5-3.4,6-6.5,8.2A18.7,18.7,0,0,1,66.9,118.325Z"/><path class="cls-2" d="M73.9,127.625a7.685,7.685,0,0,0-2.2-2.2H15.3a5.912,5.912,0,0,0-2.9,1.9,8.322,8.322,0,0,0-1.9,2.6H75.1C74.8,129.325,74.2,128.325,73.9,127.625Z"/><polygon class="cls-2" points="15.6 99.125 15.6 102.225 18 104.125 18 115.225 20.4 116.825 20.4 102.425 15.6 99.125"/><path class="cls-3" d="M41.7,111.625a0.857,0.857,0,0,0,1.7,0A0.857,0.857,0,0,0,41.7,111.625Z"/><path class="cls-2" d="M44.6,111.625a1.837,1.837,0,0,1-2.2,1.9,2.312,2.312,0,0,1-2.2-1.9,1.976,1.976,0,0,1,1.4-1.9v-1.4H38.7v-3.6h1.4v-2H24v16.6H60.5v-16.6H44.7v4.1h1.2v1.4H43.5v1.4A1.993,1.993,0,0,1,44.6,111.625Z"/><polygon class="cls-3" points="32.8 96.025 32.8 96.725 33.8 96.725 35.5 95.225 34.5 94.525 32.8 96.025"/><path class="cls-2" d="M38.8,90.225l1,0.7-4.3,4.3a7.053,7.053,0,0,0,2.6.2,4.573,4.573,0,0,0,4.6-4.8,4.792,4.792,0,0,0-4.6-4.6,4.91,4.91,0,0,0-5,4.8,5.064,5.064,0,0,0,1.4,3.6Z"/><path class="cls-2" d="M48.9,83.225a10.468,10.468,0,0,1,1.2,2.9l60.5-10.1c0-3.3.2-8.7-2.6-14.6-3.1-7-5.7-11.6-10.8-16.6l-49.9,35.3A15.1,15.1,0,0,1,48.9,83.225Z"/><rect class="cls-2" x="102.7" y="90.425" width="1.4" height="3.4"/><path class="cls-2" d="M48.9,92.125a36.575,36.575,0,0,1,5,1.2,25.939,25.939,0,0,1,4.8,1.2v2.4l5.3,4.1v14.6a16.932,16.932,0,0,0,7.4-3.1,21.306,21.306,0,0,0,5.5-7.2c2.5-4.1,4.7-6.4,9.1-8.4,4.7-2.2,8.3-3.5,13.7-3.1v-1.7H48.9Z"/><path class="cls-2" d="M18.9,95.725v1.9a66.705,66.705,0,0,0,9.8,2.4,62.277,62.277,0,0,0,11.5,1v-1.7a48.767,48.767,0,0,1-11.5-1A56.7,56.7,0,0,1,18.9,95.725Z"/><path class="cls-2" d="M51.6,97.625a26.7,26.7,0,0,1-6.7,1.4v1.7c2.5-.3,4.3-0.7,6.7-1.2a59.818,59.818,0,0,0,6-1.9v-1.9A41.816,41.816,0,0,1,51.6,97.625Z"/><rect class="cls-3" x="41.7" y="97.625" width="1.7" height="9.1"/><path class="cls-2" d="M112.8,76.025c-0.1,1,.2,2.6,1.2,2.6,1-.1,1.2-1.7,1.2-2.6a44.867,44.867,0,0,0-3.1-16.6c-3.1-8.2-7.6-13.1-11.3-17.5-0.6-.5-2.1-1.4-2.6-0.7-0.7.6,0.3,1.9,0.7,2.6,4.3,4.8,8.5,9.5,11,16.6A42.028,42.028,0,0,1,112.8,76.025Z"/><path class="cls-2" d="M117.1,75.625a5.854,5.854,0,0,1,1.7,1c1.2,0.6,1.7,2.2,2.6,2.9,1.2,1.1,2.2,2.7,3.8,2.4,2.4,0,4.1-4.1,4.1-7.4,0-8.6-1.8-13.5-4.8-21.6-2.1-6.3-7.5-16.9-13.2-22.1-1.7-1.2-4.3-2.5-5.5-1.7-1.9.9-1.9,3.4-1.7,5.5a33.165,33.165,0,0,1-.2,4.6,5.738,5.738,0,0,1-1.2,2.2,47.358,47.358,0,0,1,11,17C116.4,64.825,117,68.825,117.1,75.625Z"/><path class="cls-2" d="M9.6,125.525a14.347,14.347,0,0,1,2.6-2.2l-4.6-6.5a9.1,9.1,0,0,0-2.9,1.9,7.143,7.143,0,0,0-1.4,2.9l3.8,7A37.62,37.62,0,0,1,9.6,125.525Z"/><circle class="cls-1" cx="152.6" cy="28.825" r="5"/><path class="cls-1" d="M144.3,23.225c1-1.7,4.05,2.121,5.7,1.5"/><circle class="cls-4" cx="141.2" cy="22.625" r="1.9"/><circle class="cls-4" cx="152.2" cy="29.625" r="1.9"/><path class="cls-5" d="M155.888,51.538s0.264,0.243.777,0.622"/><path class="cls-6" d="M158.373,53.281A25.631,25.631,0,0,0,176.637,56c13.482-2.712,16.963-12.5,16.213-18.5-0.5-3.969-3.071-7.172-4.757-8.886"/><path class="cls-5" d="M187.355,27.9c-0.461-.423-0.755-0.651-0.755-0.651"/><path class="cls-7" d="M157.6,26.5l9.518-4.181c3.168-2.339,8.985-6.667,9.518.931"/></svg>